<?xml version="1.0" standalone="no"?>
<!DOCTYPE svg PUBLIC "-//W3C//DTD SVG 20010904//EN"
 "http://www.w3.org/TR/2001/REC-SVG-20010904/DTD/svg10.dtd">
<svg version="1.0" xmlns="http://www.w3.org/2000/svg"
 width="388.000000pt" height="388.000000pt" viewBox="0 0 388.000000 388.000000"
 preserveAspectRatio="xMidYMid meet">
<metadata>
Created by potrace 1.14, written by Peter Selinger 2001-2017
</metadata>
<g transform="translate(0.000000,388.000000) scale(0.100000,-0.100000)"
fill="#000000" stroke="none">
<path d="M1699 3316 c-2 -3 -45 -10 -94 -15 -50 -6 -115 -16 -145 -21 -30 -6
-72 -14 -93 -17 -20 -3 -40 -9 -43 -14 -3 -5 -15 -9 -26 -9 -23 0 -81 -17
-110 -31 -10 -5 -25 -9 -33 -9 -8 0 -23 -4 -33 -9 -9 -5 -55 -24 -102 -42 -47
-18 -86 -36 -88 -41 -2 -4 -11 -8 -20 -8 -9 0 -28 -9 -42 -20 -14 -11 -32 -20
-42 -20 -9 0 -18 -3 -20 -7 -4 -10 -57 -42 -80 -50 -10 -3 -18 -9 -18 -14 0
-5 -7 -9 -15 -9 -8 0 -15 -4 -15 -10 0 -5 -7 -10 -15 -10 -8 0 -15 -4 -15 -10
0 -5 -4 -10 -10 -10 -9 0 -18 -6 -73 -53 -12 -10 -44 -37 -71 -60 -179 -151
-321 -361 -386 -572 -44 -145 -62 -355 -38 -465 28 -134 32 -149 72 -250 23
-61 98 -201 121 -226 5 -6 17 -22 25 -34 8 -12 31 -40 50 -63 19 -22 34 -44
32 -49 -1 -4 1 -7 5 -6 11 4 99 -84 95 -95 -1 -5 1 -6 6 -3 5 3 15 -3 24 -12
16 -18 23 -24 109 -90 31 -23 59 -42 63 -42 12 0 116 -73 116 -81 0 -5 7 -5
17 -2 11 4 14 3 9 -5 -4 -8 0 -12 11 -12 10 0 54 -18 98 -40 44 -22 86 -40 93
-40 6 0 12 -4 12 -10 0 -5 10 -10 23 -10 13 0 27 -4 32 -8 6 -5 44 -19 85 -31
41 -13 84 -27 95 -31 26 -10 141 -35 275 -59 112 -21 190 -26 400 -25 239 0
375 14 540 54 25 6 62 13 83 17 21 3 40 10 43 14 3 5 18 9 33 9 15 0 31 4 36
8 12 10 90 35 110 35 8 0 15 4 15 9 0 4 5 8 10 8 11 0 80 29 143 61 22 10 45
19 52 19 7 0 15 3 17 8 2 4 24 18 51 31 26 13 47 28 47 33 0 4 5 8 11 8 5 0
38 19 71 41 63 43 77 54 133 101 18 15 36 24 40 20 5 -4 5 -1 1 6 -4 6 -4 12
1 12 12 0 81 67 133 129 25 30 55 64 68 77 12 13 22 27 22 31 0 5 18 35 39 68
71 112 125 246 152 375 19 91 16 357 -4 430 -9 30 -22 78 -30 105 -22 80 -134
289 -179 336 -7 8 -29 34 -47 58 -19 24 -56 65 -83 91 -26 26 -44 51 -40 55 4
5 1 5 -6 1 -7 -4 -15 -1 -18 8 -3 9 -11 16 -16 16 -6 0 -18 8 -27 18 -9 10
-38 34 -66 52 -27 19 -56 40 -63 46 -6 7 -21 16 -32 19 -11 3 -20 11 -20 16 0
5 -7 9 -15 9 -8 0 -15 5 -15 10 0 6 -6 10 -13 10 -7 0 -23 9 -35 20 -12 11
-30 20 -41 20 -11 0 -21 3 -23 8 -7 17 -225 110 -323 139 -27 7 -59 18 -70 23
-11 5 -33 11 -50 15 -93 19 -124 26 -165 35 -103 24 -198 32 -445 37 -143 2
-263 2 -266 -1z m456 -70 c119 -14 134 -17 225 -37 94 -21 246 -68 310 -96
153 -65 368 -191 353 -206 -3 -4 1 -7 10 -7 9 0 31 -12 49 -27 57 -50 193
-187 218 -221 14 -19 31 -40 38 -48 7 -8 10 -14 7 -14 -4 0 2 -8 13 -17 27
-24 102 -152 102 -175 0 -10 4 -18 9 -18 5 0 11 -10 14 -22 3 -13 15 -50 27
-83 51 -144 66 -382 35 -533 -32 -154 -126 -371 -191 -441 -13 -14 -24 -29
-24 -32 0 -4 -12 -20 -27 -37 -16 -16 -35 -40 -43 -52 -41 -60 -344 -300 -379
-300 -5 0 -11 -3 -13 -8 -3 -6 -32 -21 -178 -91 -19 -9 -69 -27 -110 -40 -41
-13 -84 -27 -95 -31 -24 -9 -84 -25 -145 -39 -138 -31 -197 -36 -425 -36 -226
0 -308 7 -410 35 -16 5 -55 14 -85 20 -52 11 -152 42 -195 60 -11 4 -47 18
-80 31 -33 12 -62 26 -65 29 -3 3 -21 12 -40 20 -19 8 -37 16 -40 20 -3 3 -26
16 -52 29 -27 13 -48 28 -48 33 0 4 -5 8 -11 8 -15 0 -129 79 -129 90 0 6 -5
10 -11 10 -6 0 -27 17 -45 37 -19 20 -34 34 -34 30 0 -4 -6 -2 -14 5 -8 7 -12
16 -9 20 2 5 -3 8 -11 8 -9 0 -16 4 -16 8 0 5 -21 31 -47 59 -57 61 -59 64
-101 126 -18 26 -30 52 -27 57 4 6 2 9 -5 8 -6 -2 -26 25 -45 59 -19 35 -32
63 -28 63 3 0 -1 10 -9 23 -26 39 -82 230 -77 263 1 10 -2 27 -6 38 -15 35 2
288 27 382 12 49 26 91 30 92 5 2 8 11 8 21 0 25 92 202 143 273 53 74 202
230 211 221 3 -4 6 0 6 8 1 15 80 79 99 79 7 0 10 4 7 9 -3 5 8 14 24 21 17 7
30 16 30 20 0 3 12 13 27 21 15 8 56 31 90 52 35 20 65 37 69 37 3 0 36 14 73
31 94 43 99 46 166 67 266 88 579 120 850 88z"/>
<path d="M1745 3066 c-164 -61 -233 -204 -185 -382 l22 -82 -50 -49 c-53 -53
-93 -121 -111 -188 -13 -48 -16 -172 -6 -206 7 -23 7 -23 -15 4 -35 44 -77 61
-151 60 -99 -2 -187 -53 -232 -137 -31 -59 -30 -181 2 -248 63 -130 220 -197
431 -184 156 9 270 56 360 146 95 97 140 208 140 350 0 94 -18 165 -75 295
-24 55 -45 106 -47 114 -6 28 212 73 276 57 21 -5 26 -12 26 -38 0 -34 -147
-608 -269 -1050 -20 -75 -13 -82 78 -82 79 1 123 21 157 71 11 17 44 124 74
247 45 177 57 215 70 210 33 -13 219 -16 285 -5 214 38 369 228 353 434 -9
111 -54 187 -148 247 -86 55 -131 61 -490 60 -213 -1 -350 -5 -397 -13 -71
-13 -72 -13 -82 10 -35 76 -32 223 4 263 43 47 131 66 166 34 14 -12 15 -22 8
-47 -23 -79 8 -137 73 -137 56 1 88 40 88 108 0 50 -32 97 -88 128 -37 21 -55
24 -140 23 -53 -1 -111 -6 -127 -13z m785 -456 c60 -31 104 -96 120 -178 19
-100 -24 -249 -93 -320 -53 -55 -102 -76 -182 -75 -82 0 -125 15 -125 41 0 17
88 365 126 500 l15 52 50 0 c30 0 65 -8 89 -20z m-847 -242 c20 -46 40 -100
46 -120 9 -35 8 -38 -11 -38 -13 0 -41 -21 -68 -51 -53 -58 -74 -60 -127 -15
-24 21 -28 31 -27 78 0 30 8 68 18 87 19 35 113 141 126 141 4 0 23 -37 43
-82z m-439 -234 c9 -8 19 -32 22 -53 9 -57 35 -85 78 -85 52 0 81 32 81 89 0
44 0 44 14 17 20 -41 62 -82 105 -104 47 -24 134 -34 174 -20 30 10 30 10 21
-20 -41 -144 -147 -227 -300 -236 -66 -4 -84 -1 -130 20 -113 52 -169 133
-169 244 0 115 57 196 104 148z"/>
<path d="M2443 1919 c-64 -31 -108 -87 -134 -168 l-23 -71 -43 0 c-36 0 -43
-3 -43 -20 0 -17 7 -20 39 -20 l38 0 -14 -52 c-7 -29 -27 -111 -43 -183 -48
-215 -81 -299 -118 -307 -11 -3 -22 7 -32 27 -28 56 -95 40 -88 -22 5 -43 63
-68 118 -52 35 11 86 52 128 103 41 50 83 175 152 444 l11 42 48 0 c45 0 61
10 61 36 0 2 -22 4 -50 4 -29 0 -50 4 -50 11 0 34 47 163 67 185 28 30 42 28
63 -12 30 -53 100 -42 100 16 0 59 -104 80 -187 39z"/>
<path d="M2943 1223 c-37 -7 -73 -59 -73 -105 0 -35 6 -47 40 -80 51 -47 85
-50 129 -9 18 16 39 31 49 33 28 5 24 31 -11 72 l-33 39 -33 -19 c-38 -23 -41
-61 -3 -56 26 4 31 -22 6 -36 -38 -21 -93 20 -94 69 0 33 23 53 55 47 30 -6
65 16 50 31 -13 13 -54 20 -82 14z"/>
<path d="M1003 1128 c-36 -45 -35 -55 12 -102 47 -49 55 -66 29 -66 -26 0 -54
20 -54 38 0 9 -9 23 -20 30 -17 11 -20 9 -26 -14 -13 -52 32 -94 103 -94 72 0
84 61 23 118 -27 26 -37 41 -31 50 7 12 12 12 30 1 11 -8 21 -21 21 -30 0 -16
19 -29 41 -29 21 0 8 57 -19 83 -31 29 -91 37 -109 15z"/>
<path d="M2783 1125 c-9 -10 -6 -24 12 -64 23 -49 20 -65 -7 -38 -51 49 -108
71 -124 46 -11 -19 77 -189 98 -189 22 0 23 21 3 60 -9 17 -13 30 -9 30 4 0 1
7 -6 15 -7 8 -9 15 -5 15 9 0 68 -41 77 -54 7 -11 64 -13 75 -3 3 4 -4 27 -15
52 -12 25 -32 65 -43 89 -24 49 -38 60 -56 41z"/>
<path d="M2604 1075 c-4 -10 -1 -21 7 -26 9 -6 0 -9 -27 -9 -80 0 -129 -82
-93 -153 34 -66 87 -84 148 -52 16 8 30 12 33 10 2 -2 5 6 6 18 6 64 3 96 -14
127 -11 19 -21 48 -24 64 -6 34 -27 46 -36 21z m-2 -89 c23 -17 40 -64 33 -87
-9 -28 -41 -42 -65 -29 -40 22 -53 79 -23 112 19 21 32 22 55 4z"/>
<path d="M1192 1044 c-31 -22 -52 -66 -52 -113 0 -54 43 -91 105 -91 39 0 47
4 71 35 20 26 27 48 28 82 1 40 -3 49 -34 74 -39 33 -83 38 -118 13z m92 -53
c15 -17 16 -25 6 -55 -15 -46 -44 -63 -77 -45 -22 12 -24 18 -20 53 9 62 56
86 91 47z"/>
<path d="M2433 1033 c-7 -2 -13 -9 -13 -15 0 -6 -7 -16 -16 -22 -13 -10 -14
-19 -1 -81 17 -82 14 -97 -21 -93 -20 2 -28 11 -34 33 -4 17 -12 49 -18 73 -8
30 -16 42 -29 42 -10 0 -20 -2 -23 -5 -12 -12 28 -157 50 -180 20 -20 27 -22
65 -13 23 5 51 17 61 28 18 17 18 25 8 87 -6 37 -8 87 -5 111 5 41 2 46 -24
35z"/>
<path d="M1361 915 c-26 -103 -26 -111 -2 -118 16 -4 22 5 36 57 l18 61 18
-65 c22 -76 58 -113 72 -75 9 23 48 188 45 191 -2 1 -12 4 -22 6 -16 2 -22 -8
-36 -57 l-17 -60 -17 60 c-9 33 -19 66 -21 73 -2 6 -15 12 -28 12 -22 0 -26
-8 -46 -85z"/>
<path d="M1608 937 c-60 -51 -65 -131 -11 -185 8 -8 31 -13 61 -11 26 1 54 -1
61 -5 20 -12 29 4 33 58 3 49 2 50 -31 58 -18 5 -40 7 -47 4 -21 -8 -17 -37 5
-43 26 -7 15 -33 -14 -33 -48 0 -71 63 -39 108 19 27 55 28 79 2 22 -24 55
-26 55 -4 0 9 -14 29 -31 45 -38 36 -83 38 -121 6z"/>
<path d="M2194 909 l6 -40 -37 3 c-35 3 -38 6 -41 36 -3 26 -7 32 -28 32 -13
0 -24 -6 -24 -12 0 -29 21 -191 25 -198 3 -5 15 -6 26 -3 19 5 21 11 16 49 -5
46 -6 44 43 48 18 2 28 -19 29 -56 1 -21 6 -28 20 -28 31 0 34 16 21 116 -12
90 -14 94 -38 94 -23 0 -24 -2 -18 -41z"/>
<path d="M1882 833 c3 -100 4 -108 23 -108 16 0 21 8 23 38 3 36 5 37 41 37
47 0 71 24 71 73 0 49 -28 67 -103 67 l-58 0 3 -107z m106 35 c-2 -17 -11 -24
-30 -26 -24 -3 -28 0 -28 22 0 22 4 26 31 26 26 0 30 -3 27 -22z"/>
</g>
</svg>
