<?xml version="1.0" encoding="UTF-8"?>
<!DOCTYPE svg
PUBLIC "-//W3C//DTD SVG 1.1//EN"
       "http://www.w3.org/Graphics/SVG/1.1/DTD/svg11.dtd">
<svg viewBox="35 5 1521 825" width="1486px" height="820px" xmlns="http://www.w3.org/2000/svg" version="1.1">
   <line x1="500" y1="70" x2="490" y2="70" style="stroke:#bbb;stroke-width:1;"/>
   <line x1="384" y1="50" x2="374" y2="50" style="stroke:#bbb;stroke-width:1;"/>
   <line x1="490" y1="70" x2="384" y2="50" style="stroke:#bbb;stroke-width:1;"/>
   <line x1="492.5" y1="70" x2="496.03553390593" y2="73.535533905933" style="stroke:#bbb;stroke-width:2;"/>
   <line x1="492.5" y1="70" x2="496.03553390593" y2="66.464466094067" style="stroke:#bbb;stroke-width:2;"/>
   <line x1="379" y1="50" x2="382.53553390593" y2="53.535533905933" style="stroke:#bbb;stroke-width:2;"/>
   <line x1="379" y1="50" x2="382.53553390593" y2="46.464466094067" style="stroke:#bbb;stroke-width:2;"/>
   <line x1="260" y1="170" x2="250" y2="170" style="stroke:#bbb;stroke-width:1;"/>
   <line x1="149" y1="50" x2="139" y2="50" style="stroke:#bbb;stroke-width:1;"/>
   <line x1="250" y1="170" x2="149" y2="50" style="stroke:#bbb;stroke-width:1;"/>
   <line x1="252.5" y1="170" x2="256.03553390593" y2="173.53553390593" style="stroke:#bbb;stroke-width:2;"/>
   <line x1="252.5" y1="170" x2="256.03553390593" y2="166.46446609407" style="stroke:#bbb;stroke-width:2;"/>
   <line x1="144" y1="50" x2="147.53553390593" y2="53.535533905933" style="stroke:#bbb;stroke-width:2;"/>
   <line x1="144" y1="50" x2="147.53553390593" y2="46.464466094067" style="stroke:#bbb;stroke-width:2;"/>
   <line x1="1400" y1="330" x2="1390" y2="330" style="stroke:#0bf;stroke-width:1;"/>
   <line x1="1246" y1="310" x2="1236" y2="310" style="stroke:#0bf;stroke-width:1;"/>
   <line x1="1390" y1="330" x2="1246" y2="310" style="stroke:#0bf;stroke-width:1;"/>
   <line x1="1392.5" y1="330" x2="1396.0355339059" y2="333.53553390593" style="stroke:#0bf;stroke-width:2;"/>
   <line x1="1392.5" y1="330" x2="1396.0355339059" y2="326.46446609407" style="stroke:#0bf;stroke-width:2;"/>
   <line x1="1241" y1="310" x2="1244.5355339059" y2="313.53553390593" style="stroke:#0bf;stroke-width:2;"/>
   <line x1="1241" y1="310" x2="1244.5355339059" y2="306.46446609407" style="stroke:#0bf;stroke-width:2;"/>
   <line x1="1010" y1="70" x2="1000" y2="70" style="stroke:#cb0;stroke-width:1;"/>
   <line x1="849" y1="50" x2="839" y2="50" style="stroke:#cb0;stroke-width:1;"/>
   <line x1="1000" y1="70" x2="849" y2="50" style="stroke:#cb0;stroke-width:1;"/>
   <line x1="1002.5" y1="70" x2="1006.0355339059" y2="73.535533905933" style="stroke:#cb0;stroke-width:2;"/>
   <line x1="1002.5" y1="70" x2="1006.0355339059" y2="66.464466094067" style="stroke:#cb0;stroke-width:2;"/>
   <line x1="844" y1="50" x2="847.53553390593" y2="53.535533905933" style="stroke:#cb0;stroke-width:2;"/>
   <line x1="844" y1="50" x2="847.53553390593" y2="46.464466094067" style="stroke:#cb0;stroke-width:2;"/>
   <line x1="350" y1="460" x2="340" y2="460" style="stroke:#0bf;stroke-width:1;"/>
   <line x1="198" y1="440" x2="188" y2="440" style="stroke:#0bf;stroke-width:1;"/>
   <line x1="340" y1="460" x2="198" y2="440" style="stroke:#0bf;stroke-width:1;"/>
   <line x1="342.5" y1="460" x2="346.03553390593" y2="463.53553390593" style="stroke:#0bf;stroke-width:2;"/>
   <line x1="342.5" y1="460" x2="346.03553390593" y2="456.46446609407" style="stroke:#0bf;stroke-width:2;"/>
   <line x1="193" y1="440" x2="196.53553390593" y2="443.53553390593" style="stroke:#0bf;stroke-width:2;"/>
   <line x1="193" y1="440" x2="196.53553390593" y2="436.46446609407" style="stroke:#0bf;stroke-width:2;"/>
   <line x1="724" y1="330" x2="734" y2="330" style="stroke:#c00;stroke-width:1;"/>
   <line x1="840" y1="310" x2="850" y2="310" style="stroke:#c00;stroke-width:1;"/>
   <line x1="734" y1="330" x2="840" y2="310" style="stroke:#c00;stroke-width:1;"/>
   <line x1="731.5" y1="330" x2="727.96446609407" y2="333.53553390593" style="stroke:#c00;stroke-width:2;"/>
   <line x1="731.5" y1="330" x2="727.96446609407" y2="326.46446609407" style="stroke:#c00;stroke-width:2;"/>
   <line x1="845" y1="310" x2="841.46446609407" y2="313.53553390593" style="stroke:#c00;stroke-width:2;"/>
   <line x1="845" y1="310" x2="841.46446609407" y2="306.46446609407" style="stroke:#c00;stroke-width:2;"/>
   <rect width="112" height="20" x="500" y="20" style="fill:#007;stroke:black;"/>
   <text width="112" height="20" x="505" y="34" style="fill:#fff;" font-family="Arial" font-size="16px"> access_log</text>
   <rect width="112" height="20" x="500" y="40" style="fill:#aea;stroke:black;"/>
   <text width="112" height="20" x="505" y="54" style="fill:black;" font-family="Arial" font-size="16px">id</text>
   <rect width="112" height="20" x="500" y="60" style="fill:none;stroke:black;"/>
   <text width="112" height="20" x="505" y="74" style="fill:black;" font-family="Arial" font-size="16px">account_id</text>
   <rect width="112" height="20" x="500" y="80" style="fill:none;stroke:black;"/>
   <text width="112" height="20" x="505" y="94" style="fill:black;" font-family="Arial" font-size="16px">ip</text>
   <rect width="112" height="20" x="500" y="100" style="fill:none;stroke:black;"/>
   <text width="112" height="20" x="505" y="114" style="fill:black;" font-family="Arial" font-size="16px">device_name</text>
   <rect width="112" height="20" x="500" y="120" style="fill:none;stroke:black;"/>
   <text width="112" height="20" x="505" y="134" style="fill:black;" font-family="Arial" font-size="16px">browser_name</text>
   <rect width="112" height="20" x="500" y="140" style="fill:none;stroke:black;"/>
   <text width="112" height="20" x="505" y="154" style="fill:black;" font-family="Arial" font-size="16px">login_at</text>
   <rect width="114" height="20" x="260" y="20" style="fill:#007;stroke:black;"/>
   <text width="114" height="20" x="265" y="34" style="fill:#fff;" font-family="Arial" font-size="16px"> accounts</text>
   <rect width="114" height="20" x="260" y="40" style="fill:#aea;stroke:black;"/>
   <text width="114" height="20" x="265" y="54" style="fill:black;" font-family="Arial" font-size="16px">id</text>
   <rect width="114" height="20" x="260" y="60" style="fill:none;stroke:black;"/>
   <text width="114" height="20" x="265" y="74" style="fill:black;" font-family="Arial" font-size="16px">email</text>
   <rect width="114" height="20" x="260" y="80" style="fill:none;stroke:black;"/>
   <text width="114" height="20" x="265" y="94" style="fill:black;" font-family="Arial" font-size="16px">password</text>
   <rect width="114" height="20" x="260" y="100" style="fill:none;stroke:black;"/>
   <text width="114" height="20" x="265" y="114" style="fill:black;" font-family="Arial" font-size="16px">display_name</text>
   <rect width="114" height="20" x="260" y="120" style="fill:none;stroke:black;"/>
   <text width="114" height="20" x="265" y="134" style="fill:black;" font-family="Arial" font-size="16px">phone_number</text>
   <rect width="114" height="20" x="260" y="140" style="fill:none;stroke:black;"/>
   <text width="114" height="20" x="265" y="154" style="fill:black;" font-family="Arial" font-size="16px">address</text>
   <rect width="114" height="20" x="260" y="160" style="fill:none;stroke:black;"/>
   <text width="114" height="20" x="265" y="174" style="fill:black;" font-family="Arial" font-size="16px">role_id</text>
   <rect width="114" height="20" x="260" y="180" style="fill:none;stroke:black;"/>
   <text width="114" height="20" x="265" y="194" style="fill:black;" font-family="Arial" font-size="16px">is_active</text>
   <rect width="114" height="20" x="260" y="200" style="fill:none;stroke:black;"/>
   <text width="114" height="20" x="265" y="214" style="fill:black;" font-family="Arial" font-size="16px">created_at</text>
   <rect width="114" height="20" x="260" y="220" style="fill:none;stroke:black;"/>
   <text width="114" height="20" x="265" y="234" style="fill:black;" font-family="Arial" font-size="16px">created_by</text>
   <rect width="114" height="20" x="260" y="240" style="fill:none;stroke:black;"/>
   <text width="114" height="20" x="265" y="254" style="fill:black;" font-family="Arial" font-size="16px">updated_at</text>
   <rect width="114" height="20" x="260" y="260" style="fill:none;stroke:black;"/>
   <text width="114" height="20" x="265" y="274" style="fill:black;" font-family="Arial" font-size="16px">updated_by</text>
   <rect width="114" height="20" x="260" y="280" style="fill:none;stroke:black;"/>
   <text width="114" height="20" x="265" y="294" style="fill:black;" font-family="Arial" font-size="16px">deleted_at</text>
   <rect width="114" height="20" x="260" y="300" style="fill:none;stroke:black;"/>
   <text width="114" height="20" x="265" y="314" style="fill:black;" font-family="Arial" font-size="16px">deleted_by</text>
   <rect width="89" height="20" x="750" y="20" style="fill:#007;stroke:black;"/>
   <text width="89" height="20" x="755" y="34" style="fill:#fff;" font-family="Arial" font-size="16px"> data_types</text>
   <rect width="89" height="20" x="750" y="40" style="fill:#aea;stroke:black;"/>
   <text width="89" height="20" x="755" y="54" style="fill:black;" font-family="Arial" font-size="16px">id</text>
   <rect width="89" height="20" x="750" y="60" style="fill:none;stroke:black;"/>
   <text width="89" height="20" x="755" y="74" style="fill:black;" font-family="Arial" font-size="16px">name</text>
   <rect width="89" height="20" x="750" y="80" style="fill:none;stroke:black;"/>
   <text width="89" height="20" x="755" y="94" style="fill:black;" font-family="Arial" font-size="16px">created_at</text>
   <rect width="89" height="20" x="750" y="100" style="fill:none;stroke:black;"/>
   <text width="89" height="20" x="755" y="114" style="fill:black;" font-family="Arial" font-size="16px">created_by</text>
   <rect width="89" height="20" x="750" y="120" style="fill:none;stroke:black;"/>
   <text width="89" height="20" x="755" y="134" style="fill:black;" font-family="Arial" font-size="16px">updated_at</text>
   <rect width="89" height="20" x="750" y="140" style="fill:none;stroke:black;"/>
   <text width="89" height="20" x="755" y="154" style="fill:black;" font-family="Arial" font-size="16px">updated_by</text>
   <rect width="89" height="20" x="750" y="160" style="fill:none;stroke:black;"/>
   <text width="89" height="20" x="755" y="174" style="fill:black;" font-family="Arial" font-size="16px">deleted_at</text>
   <rect width="89" height="20" x="750" y="180" style="fill:none;stroke:black;"/>
   <text width="89" height="20" x="755" y="194" style="fill:black;" font-family="Arial" font-size="16px">deleted_by</text>
   <rect width="106" height="20" x="1400" y="280" style="fill:#007;stroke:black;"/>
   <text width="106" height="20" x="1405" y="294" style="fill:#fff;" font-family="Arial" font-size="16px"> images</text>
   <rect width="106" height="20" x="1400" y="300" style="fill:#aea;stroke:black;"/>
   <text width="106" height="20" x="1405" y="314" style="fill:black;" font-family="Arial" font-size="16px">id</text>
   <rect width="106" height="20" x="1400" y="320" style="fill:none;stroke:black;"/>
   <text width="106" height="20" x="1405" y="334" style="fill:black;" font-family="Arial" font-size="16px">image_type_id</text>
   <rect width="106" height="20" x="1400" y="340" style="fill:none;stroke:black;"/>
   <text width="106" height="20" x="1405" y="354" style="fill:black;" font-family="Arial" font-size="16px">name</text>
   <rect width="106" height="20" x="1400" y="360" style="fill:none;stroke:black;"/>
   <text width="106" height="20" x="1405" y="374" style="fill:black;" font-family="Arial" font-size="16px">product_id</text>
   <rect width="106" height="20" x="1400" y="380" style="fill:none;stroke:black;"/>
   <text width="106" height="20" x="1405" y="394" style="fill:black;" font-family="Arial" font-size="16px">created_at</text>
   <rect width="106" height="20" x="1400" y="400" style="fill:none;stroke:black;"/>
   <text width="106" height="20" x="1405" y="414" style="fill:black;" font-family="Arial" font-size="16px">created_by</text>
   <rect width="106" height="20" x="1400" y="420" style="fill:none;stroke:black;"/>
   <text width="106" height="20" x="1405" y="434" style="fill:black;" font-family="Arial" font-size="16px">updated_at</text>
   <rect width="106" height="20" x="1400" y="440" style="fill:none;stroke:black;"/>
   <text width="106" height="20" x="1405" y="454" style="fill:black;" font-family="Arial" font-size="16px">updated_by</text>
   <rect width="106" height="20" x="1400" y="460" style="fill:none;stroke:black;"/>
   <text width="106" height="20" x="1405" y="474" style="fill:black;" font-family="Arial" font-size="16px">deleted_at</text>
   <rect width="106" height="20" x="1400" y="480" style="fill:none;stroke:black;"/>
   <text width="106" height="20" x="1405" y="494" style="fill:black;" font-family="Arial" font-size="16px">deleted_by</text>
   <rect width="96" height="20" x="1140" y="280" style="fill:#007;stroke:black;"/>
   <text width="96" height="20" x="1145" y="294" style="fill:#fff;" font-family="Arial" font-size="16px"> image_types</text>
   <rect width="96" height="20" x="1140" y="300" style="fill:#aea;stroke:black;"/>
   <text width="96" height="20" x="1145" y="314" style="fill:black;" font-family="Arial" font-size="16px">id</text>
   <rect width="96" height="20" x="1140" y="320" style="fill:none;stroke:black;"/>
   <text width="96" height="20" x="1145" y="334" style="fill:black;" font-family="Arial" font-size="16px">name</text>
   <rect width="96" height="20" x="1140" y="340" style="fill:none;stroke:black;"/>
   <text width="96" height="20" x="1145" y="354" style="fill:black;" font-family="Arial" font-size="16px">created_at</text>
   <rect width="96" height="20" x="1140" y="360" style="fill:none;stroke:black;"/>
   <text width="96" height="20" x="1145" y="374" style="fill:black;" font-family="Arial" font-size="16px">created_by</text>
   <rect width="96" height="20" x="1140" y="380" style="fill:none;stroke:black;"/>
   <text width="96" height="20" x="1145" y="394" style="fill:black;" font-family="Arial" font-size="16px">updated_at</text>
   <rect width="96" height="20" x="1140" y="400" style="fill:none;stroke:black;"/>
   <text width="96" height="20" x="1145" y="414" style="fill:black;" font-family="Arial" font-size="16px">updated_by</text>
   <rect width="96" height="20" x="1140" y="420" style="fill:none;stroke:black;"/>
   <text width="96" height="20" x="1145" y="434" style="fill:black;" font-family="Arial" font-size="16px">deleted_at</text>
   <rect width="96" height="20" x="1140" y="440" style="fill:none;stroke:black;"/>
   <text width="96" height="20" x="1145" y="454" style="fill:black;" font-family="Arial" font-size="16px">deleted_by</text>
   <rect width="103" height="20" x="1010" y="20" style="fill:#007;stroke:black;"/>
   <text width="103" height="20" x="1015" y="34" style="fill:#fff;" font-family="Arial" font-size="16px"> master_datas</text>
   <rect width="103" height="20" x="1010" y="40" style="fill:#aea;stroke:black;"/>
   <text width="103" height="20" x="1015" y="54" style="fill:black;" font-family="Arial" font-size="16px">id</text>
   <rect width="103" height="20" x="1010" y="60" style="fill:none;stroke:black;"/>
   <text width="103" height="20" x="1015" y="74" style="fill:black;" font-family="Arial" font-size="16px">data_type</text>
   <rect width="103" height="20" x="1010" y="80" style="fill:none;stroke:black;"/>
   <text width="103" height="20" x="1015" y="94" style="fill:black;" font-family="Arial" font-size="16px">content</text>
   <rect width="103" height="20" x="1010" y="100" style="fill:none;stroke:black;"/>
   <text width="103" height="20" x="1015" y="114" style="fill:black;" font-family="Arial" font-size="16px">created_at</text>
   <rect width="103" height="20" x="1010" y="120" style="fill:none;stroke:black;"/>
   <text width="103" height="20" x="1015" y="134" style="fill:black;" font-family="Arial" font-size="16px">created_by</text>
   <rect width="103" height="20" x="1010" y="140" style="fill:none;stroke:black;"/>
   <text width="103" height="20" x="1015" y="154" style="fill:black;" font-family="Arial" font-size="16px">updated_at</text>
   <rect width="103" height="20" x="1010" y="160" style="fill:none;stroke:black;"/>
   <text width="103" height="20" x="1015" y="174" style="fill:black;" font-family="Arial" font-size="16px">updated_by</text>
   <rect width="103" height="20" x="1010" y="180" style="fill:none;stroke:black;"/>
   <text width="103" height="20" x="1015" y="194" style="fill:black;" font-family="Arial" font-size="16px">deleted_at</text>
   <rect width="103" height="20" x="1010" y="200" style="fill:none;stroke:black;"/>
   <text width="103" height="20" x="1015" y="214" style="fill:black;" font-family="Arial" font-size="16px">deleted_by</text>
   <rect width="128" height="20" x="350" y="410" style="fill:#007;stroke:black;"/>
   <text width="128" height="20" x="355" y="424" style="fill:#fff;" font-family="Arial" font-size="16px"> products</text>
   <rect width="128" height="20" x="350" y="430" style="fill:#aea;stroke:black;"/>
   <text width="128" height="20" x="355" y="444" style="fill:black;" font-family="Arial" font-size="16px">id</text>
   <rect width="128" height="20" x="350" y="450" style="fill:none;stroke:black;"/>
   <text width="128" height="20" x="355" y="464" style="fill:black;" font-family="Arial" font-size="16px">category_id</text>
   <rect width="128" height="20" x="350" y="470" style="fill:none;stroke:black;"/>
   <text width="128" height="20" x="355" y="484" style="fill:black;" font-family="Arial" font-size="16px">name</text>
   <rect width="128" height="20" x="350" y="490" style="fill:none;stroke:black;"/>
   <text width="128" height="20" x="355" y="504" style="fill:black;" font-family="Arial" font-size="16px">price</text>
   <rect width="128" height="20" x="350" y="510" style="fill:none;stroke:black;"/>
   <text width="128" height="20" x="355" y="524" style="fill:black;" font-family="Arial" font-size="16px">ingredients</text>
   <rect width="128" height="20" x="350" y="530" style="fill:none;stroke:black;"/>
   <text width="128" height="20" x="355" y="544" style="fill:black;" font-family="Arial" font-size="16px">manual</text>
   <rect width="128" height="20" x="350" y="550" style="fill:none;stroke:black;"/>
   <text width="128" height="20" x="355" y="564" style="fill:black;" font-family="Arial" font-size="16px">preserve</text>
   <rect width="128" height="20" x="350" y="570" style="fill:none;stroke:black;"/>
   <text width="128" height="20" x="355" y="584" style="fill:black;" font-family="Arial" font-size="16px">expiry_date</text>
   <rect width="128" height="20" x="350" y="590" style="fill:none;stroke:black;"/>
   <text width="128" height="20" x="355" y="604" style="fill:black;" font-family="Arial" font-size="16px">weight</text>
   <rect width="128" height="20" x="350" y="610" style="fill:none;stroke:black;"/>
   <text width="128" height="20" x="355" y="624" style="fill:black;" font-family="Arial" font-size="16px">origin</text>
   <rect width="128" height="20" x="350" y="630" style="fill:none;stroke:black;"/>
   <text width="128" height="20" x="355" y="644" style="fill:black;" font-family="Arial" font-size="16px">meta_description</text>
   <rect width="128" height="20" x="350" y="650" style="fill:none;stroke:black;"/>
   <text width="128" height="20" x="355" y="664" style="fill:black;" font-family="Arial" font-size="16px">description</text>
   <rect width="128" height="20" x="350" y="670" style="fill:none;stroke:black;"/>
   <text width="128" height="20" x="355" y="684" style="fill:black;" font-family="Arial" font-size="16px">is_active</text>
   <rect width="128" height="20" x="350" y="690" style="fill:none;stroke:black;"/>
   <text width="128" height="20" x="355" y="704" style="fill:black;" font-family="Arial" font-size="16px">created_at</text>
   <rect width="128" height="20" x="350" y="710" style="fill:none;stroke:black;"/>
   <text width="128" height="20" x="355" y="724" style="fill:black;" font-family="Arial" font-size="16px">created_by</text>
   <rect width="128" height="20" x="350" y="730" style="fill:none;stroke:black;"/>
   <text width="128" height="20" x="355" y="744" style="fill:black;" font-family="Arial" font-size="16px">updated_at</text>
   <rect width="128" height="20" x="350" y="750" style="fill:none;stroke:black;"/>
   <text width="128" height="20" x="355" y="764" style="fill:black;" font-family="Arial" font-size="16px">updated_by</text>
   <rect width="128" height="20" x="350" y="770" style="fill:none;stroke:black;"/>
   <text width="128" height="20" x="355" y="784" style="fill:black;" font-family="Arial" font-size="16px">deleted_at</text>
   <rect width="128" height="20" x="350" y="790" style="fill:none;stroke:black;"/>
   <text width="128" height="20" x="355" y="804" style="fill:black;" font-family="Arial" font-size="16px">deleted_by</text>
   <rect width="138" height="20" x="50" y="410" style="fill:#007;stroke:black;"/>
   <text width="138" height="20" x="55" y="424" style="fill:#fff;" font-family="Arial" font-size="16px"> product_categories</text>
   <rect width="138" height="20" x="50" y="430" style="fill:#aea;stroke:black;"/>
   <text width="138" height="20" x="55" y="444" style="fill:black;" font-family="Arial" font-size="16px">id</text>
   <rect width="138" height="20" x="50" y="450" style="fill:none;stroke:black;"/>
   <text width="138" height="20" x="55" y="464" style="fill:black;" font-family="Arial" font-size="16px">name</text>
   <rect width="138" height="20" x="50" y="470" style="fill:none;stroke:black;"/>
   <text width="138" height="20" x="55" y="484" style="fill:black;" font-family="Arial" font-size="16px">created_at</text>
   <rect width="138" height="20" x="50" y="490" style="fill:none;stroke:black;"/>
   <text width="138" height="20" x="55" y="504" style="fill:black;" font-family="Arial" font-size="16px">created_by</text>
   <rect width="138" height="20" x="50" y="510" style="fill:none;stroke:black;"/>
   <text width="138" height="20" x="55" y="524" style="fill:black;" font-family="Arial" font-size="16px">updated_at</text>
   <rect width="138" height="20" x="50" y="530" style="fill:none;stroke:black;"/>
   <text width="138" height="20" x="55" y="544" style="fill:black;" font-family="Arial" font-size="16px">updated_by</text>
   <rect width="138" height="20" x="50" y="550" style="fill:none;stroke:black;"/>
   <text width="138" height="20" x="55" y="564" style="fill:black;" font-family="Arial" font-size="16px">deleted_at</text>
   <rect width="138" height="20" x="50" y="570" style="fill:none;stroke:black;"/>
   <text width="138" height="20" x="55" y="584" style="fill:black;" font-family="Arial" font-size="16px">deleted_by</text>
   <rect width="134" height="20" x="590" y="280" style="fill:#007;stroke:black;"/>
   <text width="134" height="20" x="595" y="294" style="fill:#fff;" font-family="Arial" font-size="16px"> promotions</text>
   <rect width="134" height="20" x="590" y="300" style="fill:#aea;stroke:black;"/>
   <text width="134" height="20" x="595" y="314" style="fill:black;" font-family="Arial" font-size="16px">id</text>
   <rect width="134" height="20" x="590" y="320" style="fill:none;stroke:black;"/>
   <text width="134" height="20" x="595" y="334" style="fill:black;" font-family="Arial" font-size="16px">promotion_type_id</text>
   <rect width="134" height="20" x="590" y="340" style="fill:none;stroke:black;"/>
   <text width="134" height="20" x="595" y="354" style="fill:black;" font-family="Arial" font-size="16px">content</text>
   <rect width="134" height="20" x="590" y="360" style="fill:none;stroke:black;"/>
   <text width="134" height="20" x="595" y="374" style="fill:black;" font-family="Arial" font-size="16px">description</text>
   <rect width="134" height="20" x="590" y="380" style="fill:none;stroke:black;"/>
   <text width="134" height="20" x="595" y="394" style="fill:black;" font-family="Arial" font-size="16px">is_active</text>
   <rect width="134" height="20" x="590" y="400" style="fill:none;stroke:black;"/>
   <text width="134" height="20" x="595" y="414" style="fill:black;" font-family="Arial" font-size="16px">created_at</text>
   <rect width="134" height="20" x="590" y="420" style="fill:none;stroke:black;"/>
   <text width="134" height="20" x="595" y="434" style="fill:black;" font-family="Arial" font-size="16px">created_by</text>
   <rect width="134" height="20" x="590" y="440" style="fill:none;stroke:black;"/>
   <text width="134" height="20" x="595" y="454" style="fill:black;" font-family="Arial" font-size="16px">updated_at</text>
   <rect width="134" height="20" x="590" y="460" style="fill:none;stroke:black;"/>
   <text width="134" height="20" x="595" y="474" style="fill:black;" font-family="Arial" font-size="16px">updated_by</text>
   <rect width="134" height="20" x="590" y="480" style="fill:none;stroke:black;"/>
   <text width="134" height="20" x="595" y="494" style="fill:black;" font-family="Arial" font-size="16px">deleted_at</text>
   <rect width="134" height="20" x="590" y="500" style="fill:none;stroke:black;"/>
   <text width="134" height="20" x="595" y="514" style="fill:black;" font-family="Arial" font-size="16px">deleted_by</text>
   <rect width="124" height="20" x="850" y="280" style="fill:#007;stroke:black;"/>
   <text width="124" height="20" x="855" y="294" style="fill:#fff;" font-family="Arial" font-size="16px"> promotion_types</text>
   <rect width="124" height="20" x="850" y="300" style="fill:#aea;stroke:black;"/>
   <text width="124" height="20" x="855" y="314" style="fill:black;" font-family="Arial" font-size="16px">id</text>
   <rect width="124" height="20" x="850" y="320" style="fill:none;stroke:black;"/>
   <text width="124" height="20" x="855" y="334" style="fill:black;" font-family="Arial" font-size="16px">name</text>
   <rect width="124" height="20" x="850" y="340" style="fill:none;stroke:black;"/>
   <text width="124" height="20" x="855" y="354" style="fill:black;" font-family="Arial" font-size="16px">created_at</text>
   <rect width="124" height="20" x="850" y="360" style="fill:none;stroke:black;"/>
   <text width="124" height="20" x="855" y="374" style="fill:black;" font-family="Arial" font-size="16px">created_by</text>
   <rect width="124" height="20" x="850" y="380" style="fill:none;stroke:black;"/>
   <text width="124" height="20" x="855" y="394" style="fill:black;" font-family="Arial" font-size="16px">updated_at</text>
   <rect width="124" height="20" x="850" y="400" style="fill:none;stroke:black;"/>
   <text width="124" height="20" x="855" y="414" style="fill:black;" font-family="Arial" font-size="16px">updated_by</text>
   <rect width="124" height="20" x="850" y="420" style="fill:none;stroke:black;"/>
   <text width="124" height="20" x="855" y="434" style="fill:black;" font-family="Arial" font-size="16px">deleted_at</text>
   <rect width="124" height="20" x="850" y="440" style="fill:none;stroke:black;"/>
   <text width="124" height="20" x="855" y="454" style="fill:black;" font-family="Arial" font-size="16px">deleted_by</text>
   <rect width="89" height="20" x="50" y="20" style="fill:#007;stroke:black;"/>
   <text width="89" height="20" x="55" y="34" style="fill:#fff;" font-family="Arial" font-size="16px"> roles</text>
   <rect width="89" height="20" x="50" y="40" style="fill:#aea;stroke:black;"/>
   <text width="89" height="20" x="55" y="54" style="fill:black;" font-family="Arial" font-size="16px">id</text>
   <rect width="89" height="20" x="50" y="60" style="fill:none;stroke:black;"/>
   <text width="89" height="20" x="55" y="74" style="fill:black;" font-family="Arial" font-size="16px">name</text>
   <rect width="89" height="20" x="50" y="80" style="fill:none;stroke:black;"/>
   <text width="89" height="20" x="55" y="94" style="fill:black;" font-family="Arial" font-size="16px">created_at</text>
   <rect width="89" height="20" x="50" y="100" style="fill:none;stroke:black;"/>
   <text width="89" height="20" x="55" y="114" style="fill:black;" font-family="Arial" font-size="16px">created_by</text>
   <rect width="89" height="20" x="50" y="120" style="fill:none;stroke:black;"/>
   <text width="89" height="20" x="55" y="134" style="fill:black;" font-family="Arial" font-size="16px">updated_at</text>
   <rect width="89" height="20" x="50" y="140" style="fill:none;stroke:black;"/>
   <text width="89" height="20" x="55" y="154" style="fill:black;" font-family="Arial" font-size="16px">updated_by</text>
   <rect width="89" height="20" x="50" y="160" style="fill:none;stroke:black;"/>
   <text width="89" height="20" x="55" y="174" style="fill:black;" font-family="Arial" font-size="16px">deleted_at</text>
   <rect width="89" height="20" x="50" y="180" style="fill:none;stroke:black;"/>
   <text width="89" height="20" x="55" y="194" style="fill:black;" font-family="Arial" font-size="16px">deleted_by</text>
   <rect width="89" height="20" x="1280" y="20" style="fill:#007;stroke:black;"/>
   <text width="89" height="20" x="1285" y="34" style="fill:#fff;" font-family="Arial" font-size="16px"> shops</text>
   <rect width="89" height="20" x="1280" y="40" style="fill:#aea;stroke:black;"/>
   <text width="89" height="20" x="1285" y="54" style="fill:black;" font-family="Arial" font-size="16px">id</text>
   <rect width="89" height="20" x="1280" y="60" style="fill:none;stroke:black;"/>
   <text width="89" height="20" x="1285" y="74" style="fill:black;" font-family="Arial" font-size="16px">name</text>
   <rect width="89" height="20" x="1280" y="80" style="fill:none;stroke:black;"/>
   <text width="89" height="20" x="1285" y="94" style="fill:black;" font-family="Arial" font-size="16px">address</text>
   <rect width="89" height="20" x="1280" y="100" style="fill:none;stroke:black;"/>
   <text width="89" height="20" x="1285" y="114" style="fill:black;" font-family="Arial" font-size="16px">created_at</text>
   <rect width="89" height="20" x="1280" y="120" style="fill:none;stroke:black;"/>
   <text width="89" height="20" x="1285" y="134" style="fill:black;" font-family="Arial" font-size="16px">created_by</text>
   <rect width="89" height="20" x="1280" y="140" style="fill:none;stroke:black;"/>
   <text width="89" height="20" x="1285" y="154" style="fill:black;" font-family="Arial" font-size="16px">updated_at</text>
   <rect width="89" height="20" x="1280" y="160" style="fill:none;stroke:black;"/>
   <text width="89" height="20" x="1285" y="174" style="fill:black;" font-family="Arial" font-size="16px">updated_by</text>
   <rect width="89" height="20" x="1280" y="180" style="fill:none;stroke:black;"/>
   <text width="89" height="20" x="1285" y="194" style="fill:black;" font-family="Arial" font-size="16px">deleted_at</text>
   <rect width="89" height="20" x="1280" y="200" style="fill:none;stroke:black;"/>
   <text width="89" height="20" x="1285" y="214" style="fill:black;" font-family="Arial" font-size="16px">deleted_by</text>
</svg>
